<svg width="67" height="67" viewBox="0 0 67 67" fill="none" xmlns="http://www.w3.org/2000/svg">
<g filter="url(#filter0_d_810_2460)">
<circle cx="33.5" cy="33.5" r="22.5" fill="#8FB8FA"/>
</g>
<path d="M33.5 27.4719C33.5 25.1042 31.5625 23.1667 29.1949 23.1667H20.5833V38.6667H29.2478C33.5 38.6667 33.5 42.9732 33.5 42.9732M33.5 27.4719C33.5 25.103 35.4375 23.1667 37.8051 23.1667H46.4167V38.6667H37.8051C33.5 38.6667 33.5 42.9732 33.5 42.9732M33.5 27.4719V42.9732M35.9219 44.425C36.1914 43.8668 36.6112 43.3949 37.1342 43.0622C37.6572 42.7295 38.2626 42.5493 38.8824 42.5417H45.125M31.0781 44.425C30.8135 43.863 30.3949 43.3877 29.8708 43.0544C29.3467 42.721 28.7388 42.5432 28.1176 42.5417H21.875" stroke="white" stroke-width="1.5" stroke-miterlimit="10" stroke-linecap="round" stroke-linejoin="round"/>
<defs>
<filter id="filter0_d_810_2460" x="0" y="0" width="67" height="67" filterUnits="userSpaceOnUse" color-interpolation-filters="sRGB">
<feFlood flood-opacity="0" result="BackgroundImageFix"/>
<feColorMatrix in="SourceAlpha" type="matrix" values="0 0 0 0 0 0 0 0 0 0 0 0 0 0 0 0 0 0 127 0" result="hardAlpha"/>
<feOffset/>
<feGaussianBlur stdDeviation="5.5"/>
<feComposite in2="hardAlpha" operator="out"/>
<feColorMatrix type="matrix" values="0 0 0 0 0.0368589 0 0 0 0 0.0339055 0 0 0 0 0.0339055 0 0 0 0.15 0"/>
<feBlend mode="normal" in2="BackgroundImageFix" result="effect1_dropShadow_810_2460"/>
<feBlend mode="normal" in="SourceGraphic" in2="effect1_dropShadow_810_2460" result="shape"/>
</filter>
</defs>
</svg>
