<svg width="45" height="45" viewBox="0 0 45 45" fill="none" xmlns="http://www.w3.org/2000/svg">
<circle cx="22.5" cy="22.5" r="22.5" fill="#8FB8FA"/>
<path d="M34.0625 11.7812V29.2188C34.0625 29.4757 33.9604 29.7221 33.7788 29.9038C33.5971 30.0854 33.3507 30.1875 33.0938 30.1875H5.96875C5.71182 30.1875 5.46542 30.0854 5.28374 29.9038C5.10206 29.7221 5 29.4757 5 29.2188C5 28.9618 5.10206 28.7154 5.28374 28.5337C5.46542 28.3521 5.71182 28.25 5.96875 28.25H11.7812V23.4062C11.7812 23.1493 11.8833 22.9029 12.065 22.7212C12.2467 22.5396 12.4931 22.4375 12.75 22.4375H18.5625V17.5938C18.5625 17.3368 18.6646 17.0904 18.8462 16.9087C19.0279 16.7271 19.2743 16.625 19.5312 16.625H25.3438V11.7812C25.3438 11.5243 25.4458 11.2779 25.6275 11.0962C25.8092 10.9146 26.0556 10.8125 26.3125 10.8125H33.0938C33.3507 10.8125 33.5971 10.9146 33.7788 11.0962C33.9604 11.2779 34.0625 11.5243 34.0625 11.7812Z" fill="white"/>
</svg>
